<?xml version="1.0" encoding="UTF-8"?><svg xmlns="http://www.w3.org/2000/svg" viewBox="0 0 20.71 18.99"><g id="a"/><g id="b"><g id="c"><path d="M19.69,7.98c-.54,0-1.08,0-1.61,0-.16,0-.21-.04-.21-.2,0-.41,.04-.83-.05-1.23-.24-1.03-1.11-1.71-2.22-1.71-1.43,0-2.85,0-4.28,0-.19,0-.23-.05-.22-.23,.01-.33,.01-.67,0-1.01,0-.14,.04-.21,.16-.29,.56-.32,.86-.82,.88-1.47,.02-.91-.59-1.65-1.49-1.82-.83-.16-1.69,.34-1.99,1.16-.3,.83,.02,1.71,.8,2.14,.12,.06,.14,.13,.14,.25,0,.34-.01,.69,0,1.03,0,.18-.04,.23-.22,.23-1.43,0-2.85,0-4.28,0-1.1,0-1.98,.68-2.22,1.71-.1,.41-.06,.84-.05,1.26,0,.15-.04,.18-.18,.18-.55,0-1.09,0-1.64,0C.36,7.99,0,8.34,0,8.99c0,1.1,0,2.2,0,3.3,0,.64,.37,1,1,1,.55,0,1.11,0,1.66,0,.13,0,.17,.03,.17,.17,0,.28,0,.56,0,.84,.04,1.01,.72,1.84,1.68,2.07,.44,.11,.88,.05,1.33,.06,.11,0,.2,.02,.29,.1,.45,.4,.91,.79,1.36,1.18,.49,.42,.98,.84,1.5,1.29v-.17c0-.72,0-1.43,0-2.15,0-.19,.04-.24,.24-.24,2.14,0,4.29,0,6.43,0,1.05,0,1.91-.68,2.16-1.69,.1-.42,.06-.85,.06-1.28,0-.13,.04-.17,.17-.17,.55,0,1.11,0,1.66,0,.64,0,1-.36,1-1,0-1.1,0-2.2,0-3.3,0-.65-.36-1-1.02-1.01Zm-6.43,.12c.39,0,.71,.35,.71,.75,0,.4-.33,.74-.72,.74-.38,0-.72-.34-.73-.74,0-.4,.34-.76,.73-.76Zm-5.8,0c.38,0,.72,.34,.72,.74,0,.41-.33,.76-.73,.76-.38,0-.71-.35-.71-.75,0-.4,.33-.74,.71-.75Zm6.17,4.72c-.98,.69-2.08,1.04-3.3,1.04-1.17-.01-2.26-.36-3.24-1.04-.39-.27-.49-.71-.24-1.07,.24-.35,.68-.42,1.07-.16,1.63,1.04,3.25,1.04,4.88,0,.39-.25,.83-.17,1.07,.19,.24,.36,.14,.79-.24,1.06Z"/></g></g></svg>